<svg width="9" height="16" viewBox="0 0 9 16" fill="none" xmlns="http://www.w3.org/2000/svg">
<path d="M8.20001 0.803973C8.01248 0.616502 7.75818 0.511186 7.49301 0.511186C7.22785 0.511186 6.97354 0.616502 6.78601 0.803973L0.300011 7.28997C0.206609 7.38298 0.13268 7.49367 0.0825443 7.61558C0.0324087 7.73749 0.00707054 7.86816 0.00801086 7.99997C0.00734806 8.13174 0.0328131 8.26234 0.0829334 8.3842C0.133054 8.50607 0.206834 8.6168 0.300011 8.70997L6.78601 15.196C6.97461 15.3781 7.22722 15.4789 7.48941 15.4766C7.75161 15.4744 8.00242 15.3692 8.18783 15.1838C8.37324 14.9984 8.47841 14.7476 8.48069 14.4854C8.48296 14.2232 8.38217 13.9706 8.20001 13.782L2.41801 7.99997L8.20001 2.21797C8.38748 2.03045 8.4928 1.77614 8.4928 1.51097C8.4928 1.24581 8.38748 0.991501 8.20001 0.803973Z" fill="black"/>
</svg>
