<svg width="9" height="16" viewBox="0 0 9 16" fill="none" xmlns="http://www.w3.org/2000/svg">
<path d="M0.799989 15.196C0.987516 15.3835 1.24182 15.4888 1.50699 15.4888C1.77215 15.4888 2.02646 15.3835 2.21399 15.196L8.69999 8.71003C8.79339 8.61702 8.86732 8.50633 8.91746 8.38442C8.96759 8.26251 8.99293 8.13184 8.99199 8.00003C8.99265 7.86826 8.96719 7.73766 8.91707 7.6158C8.86695 7.49393 8.79317 7.3832 8.69999 7.29003L2.21399 0.804027C2.02539 0.621869 1.77278 0.521075 1.51059 0.523353C1.24839 0.525632 0.997578 0.6308 0.81217 0.816208C0.626762 1.00162 0.521593 1.25243 0.519315 1.51463C0.517036 1.77682 0.617831 2.02943 0.799989 2.21803L6.58199 8.00003L0.799989 13.782C0.612518 13.9696 0.507202 14.2239 0.507202 14.489C0.507202 14.7542 0.612518 15.0085 0.799989 15.196Z" fill="black"/>
</svg>
