<svg width="104" height="24" viewBox="0 0 104 24" fill="none" xmlns="http://www.w3.org/2000/svg">
<g clip-path="url(#clip0_3_175)">
<path opacity="0.1" fill-rule="evenodd" clip-rule="evenodd" d="M0 12C0 5.37258 5.37258 0 12 0C18.6274 0 24 5.37258 24 12C24 18.6274 18.6274 24 12 24C5.37258 24 0 18.6274 0 12Z" fill="#F2F2F2"/>
<path fill-rule="evenodd" clip-rule="evenodd" d="M12.0006 5.6001C10.2624 5.6001 10.0443 5.6077 9.36161 5.63876C8.68027 5.66997 8.2152 5.77783 7.80827 5.9361C7.38733 6.09957 7.03026 6.31824 6.67452 6.67411C6.31852 7.02985 6.09985 7.38692 5.93585 7.80772C5.77718 8.21479 5.66918 8.68 5.63851 9.36107C5.60798 10.0437 5.59998 10.262 5.59998 12.0002C5.59998 13.7383 5.60771 13.9558 5.63864 14.6385C5.66998 15.3198 5.77784 15.7849 5.93598 16.1918C6.09958 16.6127 6.31825 16.9698 6.67412 17.3256C7.02972 17.6816 7.38679 17.9008 7.80747 18.0642C8.21467 18.2225 8.67987 18.3304 9.36108 18.3616C10.0438 18.3926 10.2618 18.4002 11.9998 18.4002C13.7381 18.4002 13.9555 18.3926 14.6382 18.3616C15.3195 18.3304 15.7851 18.2225 16.1924 18.0642C16.6132 17.9008 16.9697 17.6816 17.3253 17.3256C17.6813 16.9698 17.9 16.6127 18.064 16.1919C18.2213 15.7849 18.3293 15.3197 18.3613 14.6386C18.392 13.9559 18.4 13.7383 18.4 12.0002C18.4 10.262 18.392 10.0439 18.3613 9.3612C18.3293 8.67986 18.2213 8.21479 18.064 7.80785C17.9 7.38692 17.6813 7.02985 17.3253 6.67411C16.9693 6.31811 16.6133 6.09944 16.192 5.9361C15.7839 5.77783 15.3186 5.66997 14.6373 5.63876C13.9546 5.6077 13.7373 5.6001 11.9986 5.6001H12.0006ZM11.4264 6.75343C11.5968 6.75316 11.7869 6.75343 12.0005 6.75343C13.7094 6.75343 13.9119 6.75956 14.5867 6.79023C15.2107 6.81876 15.5494 6.92303 15.775 7.01063C16.0737 7.12663 16.2866 7.2653 16.5105 7.4893C16.7345 7.7133 16.8731 7.92664 16.9894 8.22531C17.077 8.45064 17.1814 8.78931 17.2098 9.41332C17.2405 10.088 17.2471 10.2907 17.2471 11.9987C17.2471 13.7067 17.2405 13.9094 17.2098 14.584C17.1813 15.208 17.077 15.5467 16.9894 15.7721C16.8734 16.0707 16.7345 16.2834 16.5105 16.5073C16.2865 16.7313 16.0738 16.8699 15.775 16.9859C15.5497 17.0739 15.2107 17.1779 14.5867 17.2065C13.912 17.2371 13.7094 17.2438 12.0005 17.2438C10.2916 17.2438 10.0891 17.2371 9.41439 17.2065C8.79038 17.1777 8.45171 17.0734 8.22598 16.9858C7.92731 16.8698 7.71397 16.7311 7.48997 16.5071C7.26597 16.2831 7.1273 16.0703 7.01103 15.7715C6.92343 15.5462 6.81903 15.2075 6.79063 14.5835C6.75996 13.9088 6.75383 13.7062 6.75383 11.9971C6.75383 10.288 6.75996 10.0864 6.79063 9.41172C6.81916 8.78771 6.92343 8.44904 7.01103 8.22344C7.12703 7.92477 7.26597 7.71143 7.48997 7.48743C7.71397 7.26343 7.92731 7.12476 8.22598 7.00849C8.45158 6.92049 8.79038 6.81649 9.41439 6.78783C10.0048 6.76116 10.2336 6.75316 11.4264 6.75182V6.75343ZM15.4169 7.81611C14.9928 7.81611 14.6488 8.15971 14.6488 8.58385C14.6488 9.00785 14.9928 9.35185 15.4169 9.35185C15.8409 9.35185 16.1849 9.00785 16.1849 8.58385C16.1849 8.15984 15.8409 7.81611 15.4169 7.81611ZM12.0006 8.71345C10.1855 8.71345 8.71389 10.1851 8.71389 12.0001C8.71389 13.8152 10.1855 15.2862 12.0006 15.2862C13.8157 15.2862 15.2868 13.8152 15.2868 12.0001C15.2868 10.1851 13.8157 8.71345 12.0006 8.71345ZM12.0006 9.86679C13.1787 9.86679 14.1339 10.8219 14.1339 12.0001C14.1339 13.1783 13.1787 14.1335 12.0006 14.1335C10.8223 14.1335 9.86721 13.1783 9.86721 12.0001C9.86721 10.8219 10.8223 9.86679 12.0006 9.86679Z" fill="#F2F2F2"/>
<path opacity="0.1" fill-rule="evenodd" clip-rule="evenodd" d="M40 12C40 5.37258 45.3726 0 52 0C58.6274 0 64 5.37258 64 12C64 18.6274 58.6274 24 52 24C45.3726 24 40 18.6274 40 12Z" fill="#F2F2F2"/>
<path fill-rule="evenodd" clip-rule="evenodd" d="M51.6406 9.7537L51.6658 10.1689L51.2461 10.1181C49.7184 9.92318 48.3838 9.26221 47.2507 8.15211L46.6967 7.6013L46.554 8.00805C46.2518 8.91477 46.4449 9.87234 47.0744 10.5164C47.4102 10.8723 47.3346 10.9231 46.7554 10.7113C46.554 10.6435 46.3777 10.5926 46.3609 10.6181C46.3022 10.6774 46.5036 11.4485 46.6631 11.7536C46.8813 12.1773 47.3262 12.5925 47.8131 12.8382L48.2243 13.0331L47.7375 13.0416C47.2675 13.0416 47.2507 13.0501 47.301 13.2281C47.4689 13.7789 48.132 14.3636 48.8707 14.6178L49.3911 14.7957L48.9378 15.0669C48.2663 15.4567 47.4773 15.677 46.6883 15.694C46.3106 15.7025 46 15.7364 46 15.7618C46 15.8465 47.024 16.3211 47.62 16.5075C49.4079 17.0583 51.5315 16.821 53.1263 15.8804C54.2595 15.211 55.3926 13.8806 55.9214 12.5925C56.2068 11.9061 56.4922 10.6519 56.4922 10.0503C56.4922 9.66049 56.5174 9.60964 56.9874 9.14357C57.2644 8.8724 57.5246 8.57581 57.575 8.49107C57.6589 8.33007 57.6505 8.33007 57.2224 8.47412C56.509 8.72834 56.4083 8.69445 56.7608 8.31312C57.021 8.04195 57.3316 7.55046 57.3316 7.4064C57.3316 7.38098 57.2057 7.42335 57.063 7.49961C56.9119 7.58435 56.5761 7.71146 56.3243 7.78773L55.8711 7.93179L55.4598 7.65214C55.2331 7.49961 54.9142 7.33013 54.7463 7.27929C54.3182 7.16065 53.6635 7.1776 53.2774 7.31318C52.2282 7.69451 51.5651 8.6775 51.6406 9.7537Z" fill="#F2F2F2"/>
<path opacity="0.1" fill-rule="evenodd" clip-rule="evenodd" d="M80 12C80 5.37258 85.3726 0 92 0C98.6274 0 104 5.37258 104 12C104 18.6274 98.6274 24 92 24C85.3726 24 80 18.6274 80 12Z" fill="#F2F2F2"/>
<path fill-rule="evenodd" clip-rule="evenodd" d="M97.0008 7.87476C97.5515 8.02589 97.9853 8.4712 98.1325 9.03671C98.4 10.0616 98.4 12.2001 98.4 12.2001C98.4 12.2001 98.4 14.3385 98.1325 15.3635C97.9853 15.929 97.5515 16.3743 97.0008 16.5255C96.0027 16.8001 92 16.8001 92 16.8001C92 16.8001 87.9973 16.8001 86.9991 16.5255C86.4483 16.3743 86.0146 15.929 85.8674 15.3635C85.6 14.3385 85.6 12.2001 85.6 12.2001C85.6 12.2001 85.6 10.0616 85.8674 9.03671C86.0146 8.4712 86.4483 8.02589 86.9991 7.87476C87.9973 7.6001 92 7.6001 92 7.6001C92 7.6001 96.0027 7.6001 97.0008 7.87476ZM90.8 10.4001V14.4001L94 12.4001L90.8 10.4001Z" fill="#F2F2F2"/>
</g>
<defs>
<clipPath id="clip0_3_175">
<rect width="104" height="24" fill="white"/>
</clipPath>
</defs>
</svg>
